<svg xmlns="http://www.w3.org/2000/svg" width="192" height="192" viewBox="0 0 192 192" role="img" aria-label="SMS Webhook icon"><defs><linearGradient id="g" x1="0" y1="0" x2="1" y2="1"><stop offset="0%" stop-color="#0e5cad"/><stop offset="100%" stop-color="#0b7a75"/></linearGradient></defs><rect width="192" height="192" rx="34" fill="url(#g)"/><circle cx="155" cy="32" r="58" fill="#ffffff" opacity="0.12"/><path d="M40 48h112a14 14 0 0 1 14 14v62a14 14 0 0 1-14 14H94l-28 24 6-24H40a14 14 0 0 1-14-14V62a14 14 0 0 1 14-14z" fill="#fff"/><rect x="56" y="72" width="80" height="12" rx="6" fill="#0e5cad"/><rect x="56" y="92" width="62" height="10" rx="5" fill="#0e5cad" opacity="0.9"/><rect x="56" y="108" width="72" height="10" rx="5" fill="#0e5cad" opacity="0.9"/></svg>